<svg width="228" height="171" viewBox="0 0 228 171" fill="none" xmlns="http://www.w3.org/2000/svg">
<g filter="url(#filter0_d_4428_2877)">
<path fill-rule="evenodd" clip-rule="evenodd" d="M35.6228 24.4542C34.4171 23.6659 32.9978 23.277 31.5635 23.342C30.1293 23.4071 28.7518 23.9228 27.624 24.817C26.4962 25.7113 25.6744 26.9392 25.2736 28.3291C24.8729 29.7189 24.9132 31.2011 25.389 32.5683L51.3223 107.338C51.828 108.797 52.8011 110.045 54.0877 110.884C55.3743 111.724 56.9009 112.107 58.4261 111.974L136.621 105.154C138.051 105.031 139.407 104.46 140.498 103.52C141.589 102.581 142.361 101.321 142.706 99.9155C143.051 98.5104 142.951 97.031 142.422 95.6841C141.892 94.3373 140.958 93.1906 139.751 92.4044L110.537 73.0479C131.265 42.1226 152.949 35.2119 164.215 31.8376C175.482 28.4633 182.947 31.9963 191.345 35.5343L193.511 36.4434C195.065 37.0868 196.797 37.1356 198.383 36.5806C199.968 36.0257 201.297 34.9052 202.119 33.43C202.941 31.9549 203.199 30.2267 202.846 28.5707C202.492 26.9146 201.551 25.4448 200.2 24.4378C184.941 13.0676 168.937 1.35451 142.422 0.091849C116.686 -1.13305 86.7909 9.74021 64.0315 41.9426L35.6228 24.4542Z" fill="url(#paint0_linear_4428_2877)"/>
</g>
<defs>
<filter id="filter0_d_4428_2877" x="0" y="0" width="228" height="171" filterUnits="userSpaceOnUse" color-interpolation-filters="sRGB">
<feFlood flood-opacity="0" result="BackgroundImageFix"/>
<feColorMatrix in="SourceAlpha" type="matrix" values="0 0 0 0 0 0 0 0 0 0 0 0 0 0 0 0 0 0 127 0" result="hardAlpha"/>
<feOffset dy="34"/>
<feGaussianBlur stdDeviation="12.5"/>
<feComposite in2="hardAlpha" operator="out"/>
<feColorMatrix type="matrix" values="0 0 0 0 0 0 0 0 0 0 0 0 0 0 0 0 0 0 0.06 0"/>
<feBlend mode="normal" in2="BackgroundImageFix" result="effect1_dropShadow_4428_2877"/>
<feBlend mode="normal" in="SourceGraphic" in2="effect1_dropShadow_4428_2877" result="shape"/>
</filter>
<linearGradient id="paint0_linear_4428_2877" x1="148.145" y1="-39.8513" x2="63.8855" y2="91.7887" gradientUnits="userSpaceOnUse">
<stop stop-color="white"/>
<stop offset="0.291667" stop-color="white"/>
<stop offset="0.723958" stop-color="white"/>
<stop offset="1" stop-color="white"/>
</linearGradient>
</defs>
</svg>
