<svg width="54" height="54" viewBox="0 0 54 54" fill="none" xmlns="http://www.w3.org/2000/svg">
<line x1="26.8242" y1="5.39844" x2="26.8242" y2="52.6492" stroke="#222222"/>
<line x1="4.05078" y1="27.1719" x2="51.3015" y2="27.1719" stroke="#222222"/>
<path d="M31.0493 4.05006C31.0493 6.28685 29.2361 8.10012 26.9993 8.10012C24.7625 8.10012 22.9492 6.28685 22.9492 4.05006C22.9492 1.81327 24.7625 0 26.9993 0C29.2361 0 31.0493 1.81327 31.0493 4.05006Z" fill="#222222"/>
<path d="M31.0493 27.0032C31.0493 29.24 29.2361 31.0532 26.9993 31.0532C24.7625 31.0532 22.9492 29.24 22.9492 27.0032C22.9492 24.7664 24.7625 22.9531 26.9993 22.9531C29.2361 22.9531 31.0493 24.7664 31.0493 27.0032Z" fill="#222222"/>
<path d="M54.0005 27.0032C54.0005 29.24 52.1872 31.0532 49.9505 31.0532C47.7137 31.0532 45.9004 29.24 45.9004 27.0032C45.9004 24.7664 47.7137 22.9531 49.9505 22.9531C52.1872 22.9531 54.0005 24.7664 54.0005 27.0032Z" fill="#222222"/>
<path d="M8.10012 27.0032C8.10012 29.24 6.28685 31.0532 4.05006 31.0532C1.81327 31.0532 0 29.24 0 27.0032C0 24.7664 1.81327 22.9531 4.05006 22.9531C6.28685 22.9531 8.10012 24.7664 8.10012 27.0032Z" fill="#222222"/>
<path d="M31.0493 49.9485C31.0493 52.1853 29.2361 53.9986 26.9993 53.9986C24.7625 53.9986 22.9492 52.1853 22.9492 49.9485C22.9492 47.7117 24.7625 45.8984 26.9993 45.8984C29.2361 45.8984 31.0493 47.7117 31.0493 49.9485Z" fill="#222222"/>
<line x1="42.5079" y1="11.9571" x2="9.09655" y2="45.3684" stroke="#222222"/>
<line x1="11.0039" y1="11.25" x2="44.4152" y2="44.6613" stroke="#222222"/>
<path d="M46.4488 13.9899C44.8671 15.5716 42.3028 15.5716 40.7211 13.9899C39.1395 12.4083 39.1395 9.84391 40.7211 8.26226C42.3028 6.68062 44.8671 6.68062 46.4488 8.26226C48.0304 9.84391 48.0304 12.4083 46.4488 13.9899Z" fill="#222222"/>
<path d="M46.4488 46.4469C44.8671 48.0286 42.3028 48.0286 40.7211 46.4469C39.1395 44.8653 39.1395 42.3009 40.7211 40.7193C42.3028 39.1376 44.8671 39.1376 46.4488 40.7193C48.0304 42.3009 48.0304 44.8653 46.4488 46.4469Z" fill="#222222"/>
<path d="M13.9918 13.9899C12.4101 15.5716 9.84575 15.5716 8.2641 13.9899C6.68246 12.4083 6.68246 9.84391 8.2641 8.26226C9.84575 6.68062 12.4101 6.68062 13.9918 8.26226C15.5734 9.84391 15.5734 12.4083 13.9918 13.9899Z" fill="#222222"/>
<path d="M13.9918 46.4469C12.4101 48.0286 9.84575 48.0286 8.2641 46.4469C6.68246 44.8653 6.68246 42.3009 8.2641 40.7193C9.84575 39.1376 12.4101 39.1376 13.9918 40.7193C15.5734 42.3009 15.5734 44.8653 13.9918 46.4469Z" fill="#222222"/>
</svg>
