<svg width="54" height="54" viewBox="0 0 54 54" fill="none" xmlns="http://www.w3.org/2000/svg">
<path d="M31.0493 4.05006C31.0493 6.28685 29.2361 8.10012 26.9993 8.10012C24.7625 8.10012 22.9492 6.28685 22.9492 4.05006C22.9492 1.81327 24.7625 0 26.9993 0C29.2361 0 31.0493 1.81327 31.0493 4.05006Z" fill="#222222"/>
<path d="M54.0005 4.05006C54.0005 6.28685 52.1872 8.10012 49.9505 8.10012C47.7137 8.10012 45.9004 6.28685 45.9004 4.05006C45.9004 1.81327 47.7137 0 49.9505 0C52.1872 0 54.0005 1.81327 54.0005 4.05006Z" fill="#222222"/>
<path d="M8.10012 4.05006C8.10012 6.28685 6.28685 8.10012 4.05006 8.10012C1.81327 8.10012 0 6.28685 0 4.05006C0 1.81327 1.81327 0 4.05006 0C6.28685 0 8.10012 1.81327 8.10012 4.05006Z" fill="#222222"/>
<path d="M31.0493 27.0032C31.0493 29.24 29.2361 31.0532 26.9993 31.0532C24.7625 31.0532 22.9492 29.24 22.9492 27.0032C22.9492 24.7664 24.7625 22.9531 26.9993 22.9531C29.2361 22.9531 31.0493 24.7664 31.0493 27.0032Z" fill="#222222"/>
<path d="M54.0005 27.0032C54.0005 29.24 52.1872 31.0532 49.9505 31.0532C47.7137 31.0532 45.9004 29.24 45.9004 27.0032C45.9004 24.7664 47.7137 22.9531 49.9505 22.9531C52.1872 22.9531 54.0005 24.7664 54.0005 27.0032Z" fill="#222222"/>
<path d="M8.10012 27.0032C8.10012 29.24 6.28685 31.0532 4.05006 31.0532C1.81327 31.0532 0 29.24 0 27.0032C0 24.7664 1.81327 22.9531 4.05006 22.9531C6.28685 22.9531 8.10012 24.7664 8.10012 27.0032Z" fill="#222222"/>
<path d="M31.0493 49.9485C31.0493 52.1853 29.2361 53.9986 26.9993 53.9986C24.7625 53.9986 22.9492 52.1853 22.9492 49.9485C22.9492 47.7117 24.7625 45.8984 26.9993 45.8984C29.2361 45.8984 31.0493 47.7117 31.0493 49.9485Z" fill="#222222"/>
<path d="M54.0005 49.9485C54.0005 52.1853 52.1872 53.9986 49.9505 53.9986C47.7137 53.9986 45.9004 52.1853 45.9004 49.9485C45.9004 47.7117 47.7137 45.8984 49.9505 45.8984C52.1872 45.8984 54.0005 47.7117 54.0005 49.9485Z" fill="#222222"/>
<path d="M8.10012 49.9485C8.10012 52.1853 6.28685 53.9986 4.05006 53.9986C1.81327 53.9986 0 52.1853 0 49.9485C0 47.7117 1.81327 45.8984 4.05006 45.8984C6.28685 45.8984 8.10012 47.7117 8.10012 49.9485Z" fill="#222222"/>
<line x1="50.8589" y1="50.1695" x2="26.5585" y2="4.2688" stroke="#222222"/>
<line x1="3.14111" y1="3.81098" x2="27.4415" y2="49.7117" stroke="#222222"/>
<line x1="3.81684" y1="50.855" x2="49.7175" y2="26.5546" stroke="#222222"/>
<line x1="50.1841" y1="3.12939" x2="4.28344" y2="27.4298" stroke="#222222"/>
<line x1="51.3008" y1="3.1875" x2="4.05007" y2="3.1875" stroke="#222222"/>
<line x1="49.9502" y1="50.4375" x2="2.69948" y2="50.4375" stroke="#222222"/>
<line x1="50.4502" y1="4.04883" x2="50.4502" y2="51.2995" stroke="#222222"/>
<line x1="3.19922" y1="4.04883" x2="3.19923" y2="51.2995" stroke="#222222"/>
<line x1="26.8252" y1="5.40039" x2="26.8252" y2="52.6511" stroke="#222222"/>
<line x1="4.05078" y1="27.1738" x2="51.3015" y2="27.1738" stroke="#222222"/>
<line y1="-0.5" x2="51.9363" y2="-0.5" transform="matrix(0.467888 -0.883788 -0.883788 -0.467888 2.69922 49.9355)" stroke="#222222"/>
<line y1="-0.5" x2="51.9363" y2="-0.5" transform="matrix(-0.467888 0.883788 0.883788 0.467888 51.3008 4.04492)" stroke="#222222"/>
<line y1="-0.5" x2="51.9363" y2="-0.5" transform="matrix(0.883788 0.467888 0.467888 -0.883788 4.05078 2.69531)" stroke="#222222"/>
<line y1="-0.5" x2="51.9363" y2="-0.5" transform="matrix(-0.883788 -0.467888 -0.467888 0.883788 49.9502 51.2891)" stroke="#222222"/>
</svg>
