<svg width="58" height="54" viewBox="0 0 58 54" fill="none" xmlns="http://www.w3.org/2000/svg">
<path d="M28.9996 4.76471C28.9996 7.39618 26.8357 9.52941 24.1663 9.52941C21.497 9.52941 19.333 7.39618 19.333 4.76471C19.333 2.13323 21.497 0 24.1663 0C26.8357 0 28.9996 2.13323 28.9996 4.76471Z" fill="#222222"/>
<path d="M38.6666 28.5889C38.6666 31.2204 36.5027 33.3536 33.8333 33.3536C31.1639 33.3536 29 31.2204 29 28.5889C29 25.9574 31.1639 23.8242 33.8333 23.8242C36.5027 23.8242 38.6666 25.9574 38.6666 28.5889Z" fill="#222222"/>
<path d="M19.3336 23.8233C19.3336 26.4548 17.1697 28.588 14.5003 28.588C11.8309 28.588 9.66699 26.4548 9.66699 23.8233C9.66699 21.1918 11.8309 19.0586 14.5003 19.0586C17.1697 19.0586 19.3336 21.1918 19.3336 23.8233Z" fill="#222222"/>
<path d="M58.0006 28.5889C58.0006 31.2204 55.8367 33.3536 53.1673 33.3536C50.4979 33.3536 48.334 31.2204 48.334 28.5889C48.334 25.9574 50.4979 23.8242 53.1673 23.8242C55.8367 23.8242 58.0006 25.9574 58.0006 28.5889Z" fill="#222222"/>
<path d="M58.0006 49.2335C58.0006 51.8649 55.8367 53.9982 53.1673 53.9982C50.4979 53.9982 48.334 51.8649 48.334 49.2335C48.334 46.602 50.4979 44.4688 53.1673 44.4688C55.8367 44.4688 58.0006 46.602 58.0006 49.2335Z" fill="#222222"/>
<path d="M33.8326 46.0577C33.8326 48.6891 31.6687 50.8224 28.9993 50.8224C26.33 50.8224 24.166 48.6891 24.166 46.0577C24.166 43.4262 26.33 41.293 28.9993 41.293C31.6687 41.293 33.8326 43.4262 33.8326 46.0577Z" fill="#222222"/>
<path d="M9.66663 49.2335C9.66663 51.8649 7.50268 53.9982 4.83331 53.9982C2.16395 53.9982 0 51.8649 0 49.2335C0 46.602 2.16395 44.4688 4.83331 44.4688C7.50268 44.4688 9.66663 46.602 9.66663 49.2335Z" fill="#222222"/>
<line y1="-0.5" x2="37.5307" y2="-0.5" transform="matrix(-0.772698 -0.634774 0.645577 -0.763695 53.167 28.5898)" stroke="#222222"/>
<line y1="-0.5" x2="53.9876" y2="-0.5" transform="matrix(-0.567 -0.823718 0.831177 -0.556007 54.7773 49.2344)" stroke="#222222"/>
<line y1="-0.5" x2="46.3117" y2="-0.5" transform="matrix(-0.104365 -0.994539 0.99484 -0.101454 29 49.2344)" stroke="#222222"/>
<line y1="-0.5" x2="25.71" y2="-0.5" transform="matrix(-0.375987 -0.926625 0.930287 -0.366833 33.833 28.5898)" stroke="#222222"/>
<line y1="-0.5" x2="35.5991" y2="-0.5" transform="matrix(-0.814625 0.579989 -0.59099 -0.806679 33.833 28.5898)" stroke="#222222"/>
<line y1="-0.5" x2="19.9666" y2="-0.5" transform="matrix(0.48414 -0.874991 0.880747 0.473588 14.5 23.8242)" stroke="#222222"/>
<line y1="-0.5" x2="27.8019" y2="-0.5" transform="matrix(0.405646 -0.91403 0.918239 0.396027 4.83301 49.2344)" stroke="#222222"/>
<line y1="-0.5" x2="19.6621" y2="-0.5" transform="matrix(0.245818 -0.969316 0.970948 0.239291 29 49.2344)" stroke="#222222"/>
<line x1="52.667" y1="49.2344" x2="52.667" y2="28.5873" stroke="#222222"/>
<line x1="52.667" y1="49.2344" x2="52.667" y2="28.5873" stroke="#222222"/>
<line y1="-0.5" x2="29.2576" y2="-0.5" transform="matrix(-0.495596 -0.868553 0.874543 -0.484948 29 49.2344)" stroke="#222222"/>
<line y1="-0.5" x2="22.778" y2="-0.5" transform="matrix(-0.990229 0.139453 -0.143416 -0.989662 27.3887 46.0586)" stroke="#222222"/>
<line y1="-0.5" x2="24.3744" y2="-0.5" transform="matrix(-0.991472 -0.13032 0.134033 -0.990977 53.167 49.2344)" stroke="#222222"/>
<line x1="56.3887" y1="29.0898" x2="32.2221" y2="29.0898" stroke="#222222"/>
</svg>
