<svg width="54" height="54" viewBox="0 0 54 54" fill="none" xmlns="http://www.w3.org/2000/svg">
<path d="M18.669 4.7074C18.669 7.30722 16.512 9.4148 13.8511 9.4148C11.1903 9.4148 9.0332 7.30722 9.0332 4.7074C9.0332 2.10757 11.1903 0 13.8511 0C16.512 0 18.669 2.10757 18.669 4.7074Z" fill="#222222"/>
<path d="M10.1253 31.8188C12.0566 33.6072 12.1384 36.5866 10.308 38.4736C8.47768 40.3607 5.42824 40.4406 3.49694 38.6522C1.56563 36.8638 1.48381 33.8843 3.31418 31.9973C5.14454 30.1103 8.19398 30.0304 10.1253 31.8188Z" fill="#222222"/>
<path d="M41.1524 31.3793C41.1524 33.9791 38.9954 36.0867 36.3345 36.0867C33.6737 36.0867 31.5166 33.9791 31.5166 31.3793C31.5166 28.7794 33.6737 26.6719 36.3345 26.6719C38.9954 26.6719 41.1524 28.7794 41.1524 31.3793Z" fill="#222222"/>
<path d="M12.2452 15.6918C12.2452 18.2916 10.0882 20.3992 7.42729 20.3992C4.76643 20.3992 2.60938 18.2916 2.60938 15.6918C2.60938 13.0919 4.76643 10.9844 7.42729 10.9844C10.0882 10.9844 12.2452 13.0919 12.2452 15.6918Z" fill="#222222"/>
<path d="M13.8655 43.9282C15.7968 45.7165 15.8786 48.696 14.0483 50.583C12.2179 52.47 9.16847 52.55 7.23717 50.7616C5.30587 48.9732 5.22404 45.9937 7.05441 44.1067C8.88478 42.2197 11.9342 42.1398 13.8655 43.9282Z" fill="#222222"/>
<path d="M41.1524 43.934C41.1524 46.5338 38.9954 48.6414 36.3345 48.6414C33.6737 48.6414 31.5166 46.5338 31.5166 43.934C31.5166 41.3341 33.6737 39.2266 36.3345 39.2266C38.9954 39.2266 41.1524 41.3341 41.1524 43.934Z" fill="#222222"/>
<path d="M54.0011 31.3793C54.0011 33.9791 51.844 36.0867 49.1832 36.0867C46.5223 36.0867 44.3652 33.9791 44.3652 31.3793C44.3652 28.7794 46.5223 26.6719 49.1832 26.6719C51.844 26.6719 54.0011 28.7794 54.0011 31.3793Z" fill="#222222"/>
<path d="M26.6993 15.6918C26.6993 18.2916 24.5423 20.3992 21.8814 20.3992C19.2205 20.3992 17.0635 18.2916 17.0635 15.6918C17.0635 13.0919 19.2205 10.9844 21.8814 10.9844C24.5423 10.9844 26.6993 13.0919 26.6993 15.6918Z" fill="#222222"/>
<path d="M23.8079 33.6821C25.7392 35.4704 25.821 38.4499 23.9907 40.3369C22.1603 42.2239 19.1109 42.3039 17.1796 40.5155C15.2482 38.7271 15.1664 35.7476 16.9968 33.8606C18.8272 31.9736 21.8766 31.8937 23.8079 33.6821Z" fill="#222222"/>
<path d="M54.0011 43.934C54.0011 46.5338 51.844 48.6414 49.1832 48.6414C46.5223 48.6414 44.3652 46.5338 44.3652 43.934C44.3652 41.3341 46.5223 39.2266 49.1832 39.2266C51.844 39.2266 54.0011 41.3341 54.0011 43.934Z" fill="#222222"/>
<line x1="23.4873" y1="16.1914" x2="7.42758" y2="16.1914" stroke="#222222"/>
<line y1="-0.5" x2="15.8667" y2="-0.5" transform="matrix(-0.696253 0.717796 -0.733734 -0.679436 21.5986 35.9609)" stroke="#222222"/>
<line x1="52.3945" y1="44.4375" x2="36.3348" y2="44.4375" stroke="#222222"/>
<line x1="50.7891" y1="30.3125" x2="34.7293" y2="30.3125" stroke="#222222"/>
<line x1="48.0771" y1="32.9531" x2="48.0771" y2="45.5062" stroke="#222222"/>
<line x1="36.835" y1="32.9531" x2="36.835" y2="45.5062" stroke="#222222"/>
<line y1="-0.5" x2="13.6061" y2="-0.5" transform="matrix(-0.590167 -0.807281 0.82004 -0.572307 23.4873 15.6914)" stroke="#222222"/>
<line y1="-0.5" x2="13.8091" y2="-0.5" transform="matrix(-0.990876 -0.134777 0.141055 -0.990002 21.5986 35.9609)" stroke="#222222"/>
<line y1="-0.5" x2="13.6061" y2="-0.5" transform="matrix(0.590167 -0.807281 0.82004 0.572307 7.42773 15.6914)" stroke="#222222"/>
<line y1="-0.5" x2="13.5099" y2="-0.5" transform="matrix(-0.195109 -0.980782 0.982441 -0.186575 10.5518 47.3438)" stroke="#222222"/>
</svg>
