<svg width="148" height="40" viewBox="0 0 148 40" fill="none" xmlns="http://www.w3.org/2000/svg">
<path d="M144.648 13.3181C144.587 13.2298 144.627 13.1009 144.737 13.0737C145.562 12.8361 146.244 12.4084 146.763 11.7906C147.397 11.037 147.725 10.0798 147.725 8.95286C147.725 8.08388 147.527 7.32353 147.145 6.6718C146.756 6.02007 146.21 5.5109 145.514 5.15109C144.825 4.79807 144.007 4.61477 143.093 4.61477H139.948C139.907 4.61477 139.866 4.62835 139.832 4.66229L138.01 6.47492C138.01 6.47492 137.963 6.54281 137.963 6.59033V18.0839C137.963 18.1721 138.031 18.24 138.12 18.24H139.429C139.518 18.24 139.586 18.1721 139.586 18.0839V13.4675C139.586 13.3792 139.654 13.3113 139.743 13.3113H142.554C142.608 13.3113 142.656 13.3385 142.683 13.3792L146.135 18.1857C146.162 18.2264 146.21 18.2536 146.265 18.2536H147.841C147.97 18.2536 148.045 18.111 147.97 18.0024L144.641 13.3317L144.648 13.3181ZM139.593 6.35272C139.593 6.26446 139.661 6.19658 139.75 6.19658H142.97C143.945 6.19658 144.716 6.44776 145.262 6.94335C145.808 7.43894 146.074 8.09746 146.074 8.96643C146.074 9.83541 145.808 10.5075 145.262 11.0099C144.716 11.5055 143.945 11.7567 142.97 11.7567H139.75C139.661 11.7567 139.593 11.6888 139.593 11.6005V6.35272Z" fill="#0C0066"/>
<path d="M57.9165 4.78673V6.03588C57.9165 6.12414 57.8482 6.19203 57.7596 6.19203H53.5164C53.4277 6.19203 53.3595 6.25992 53.3595 6.34817V18.0861C53.3595 18.1744 53.2913 18.2423 53.2026 18.2423H51.9133C51.8246 18.2423 51.7564 18.1744 51.7564 18.0861V6.34817C51.7564 6.25992 51.6882 6.19203 51.5995 6.19203H47.37C47.2814 6.19203 47.2131 6.12414 47.2131 6.03588V4.78673C47.2131 4.69848 47.2814 4.63059 47.37 4.63059H57.7732C57.8619 4.63059 57.9301 4.69848 57.9301 4.78673H57.9165Z" fill="#0C0066"/>
<path d="M71.6142 7.7803C71.0207 6.71445 70.1816 5.87263 69.1175 5.27521C68.0533 4.68458 66.8253 4.37908 65.4542 4.37908C64.083 4.37908 62.8755 4.67779 61.8114 5.27521C60.7472 5.87263 59.9013 6.71445 59.3078 7.7803C58.7143 8.84615 58.4073 10.0749 58.4073 11.4395C58.4073 12.8041 58.7075 14.0328 59.3078 15.0919C59.9081 16.1578 60.7472 16.9996 61.8114 17.597C62.8755 18.1876 64.0966 18.4931 65.4542 18.4931C66.8117 18.4931 68.0533 18.1944 69.1175 17.597C70.1816 16.9996 71.0207 16.1578 71.6142 15.0919C72.2009 14.0261 72.501 12.7973 72.501 11.4395C72.501 10.0817 72.2009 8.84615 71.6142 7.78709V7.7803ZM65.4542 16.8638C64.3968 16.8638 63.4486 16.633 62.6368 16.1781C62.2343 15.9541 61.8727 15.6825 61.5589 15.3567C61.2451 15.0376 60.9723 14.671 60.7403 14.2637C60.2833 13.4422 60.0513 12.485 60.0513 11.4327C60.0513 10.3804 60.2833 9.40963 60.7403 8.59496C61.1906 7.7803 61.8318 7.13536 62.6368 6.68729C63.4486 6.23244 64.39 6.00162 65.4542 6.00162C66.5184 6.00162 67.4666 6.23244 68.2784 6.68729C69.0902 7.13536 69.7314 7.7803 70.1816 8.59496C70.6387 9.40963 70.8706 10.3669 70.8706 11.4327C70.8706 12.4986 70.6387 13.4558 70.1816 14.2705C69.7314 15.0851 69.0833 15.7233 68.2784 16.1781C67.4598 16.633 66.5115 16.8638 65.4542 16.8638Z" fill="#0C0066"/>
<path d="M88.2521 11.094C88.3612 15.1605 85.537 18.5481 81.3553 18.487C80.0387 18.487 78.8381 18.1815 77.7943 17.5841C74.438 15.7308 73.558 11.0397 75.3181 7.80137C77.7534 3.19852 85.0049 3.27999 87.4062 7.81495C87.4403 7.87605 87.4267 7.95073 87.3789 8.00504L86.3897 8.98942C86.3079 9.07089 86.1783 9.04374 86.1305 8.9419C85.7349 8.04577 85.1277 7.31258 84.3159 6.80341C82.7742 5.77829 80.2229 5.74435 78.6198 6.688C76.0412 8.07293 75.4408 11.8204 76.7574 14.2712C77.6784 15.982 79.4043 16.8781 81.3758 16.8645C83.9953 16.912 86.1373 15.1469 86.5057 12.6011C86.5194 12.5061 86.4443 12.4246 86.3488 12.4246H80.8641C80.7755 12.4246 80.7072 12.3567 80.7072 12.2684V11.0193C80.7072 10.931 80.7755 10.8632 80.8641 10.8632H88.0952C88.1839 10.8632 88.2521 10.931 88.2521 11.0193V11.1008V11.094Z" fill="#0C0066"/>
<path d="M99.1356 18.0861C99.1356 18.1744 99.0674 18.2423 98.9787 18.2423H90.8403C90.7517 18.2423 90.6834 18.1744 90.6834 18.0861V4.78673C90.6834 4.69848 90.7517 4.63059 90.8403 4.63059H98.774C98.8627 4.63059 98.9309 4.69848 98.9309 4.78673V6.01552C98.9309 6.10377 98.8627 6.17166 98.774 6.17166H92.4707C92.3821 6.17166 92.3139 6.23955 92.3139 6.3278V10.374C92.3139 10.4622 92.3821 10.5301 92.4707 10.5301H98.2829C98.3716 10.5301 98.4398 10.598 98.4398 10.6863V11.8947C98.4398 11.9829 98.3716 12.0508 98.2829 12.0508H92.4707C92.3821 12.0508 92.3139 12.1187 92.3139 12.207V16.5179C92.3139 16.6061 92.3821 16.674 92.4707 16.674H98.9787C99.0674 16.674 99.1356 16.7419 99.1356 16.8302V18.0861Z" fill="#0C0066"/>
<path d="M111.091 4.78673V6.03588C111.091 6.12414 111.023 6.19203 110.935 6.19203H106.691C106.603 6.19203 106.535 6.25992 106.535 6.34817V18.0861C106.535 18.1744 106.466 18.2423 106.378 18.2423H105.088C105 18.2423 104.931 18.1744 104.931 18.0861V6.34817C104.931 6.25992 104.863 6.19203 104.775 6.19203H100.545C100.456 6.19203 100.388 6.12414 100.388 6.03588V4.78673C100.388 4.69848 100.456 4.63059 100.545 4.63059H110.948C111.037 4.63059 111.105 4.69848 111.105 4.78673H111.091Z" fill="#0C0066"/>
<path d="M123.656 4.78673V18.0861C123.656 18.1744 123.588 18.2423 123.499 18.2423H122.189C122.101 18.2423 122.033 18.1744 122.033 18.0861V12.2477C122.033 12.1594 121.964 12.0916 121.876 12.0916H114.938C114.849 12.0916 114.781 12.1594 114.781 12.2477V18.0861C114.781 18.1744 114.713 18.2423 114.624 18.2423H113.314C113.226 18.2423 113.158 18.1744 113.158 18.0861V4.78673C113.158 4.69848 113.226 4.63059 113.314 4.63059H114.624C114.713 4.63059 114.781 4.69848 114.781 4.78673V10.3604C114.781 10.4486 114.849 10.5165 114.938 10.5165H122.033V4.78673C122.033 4.69848 122.101 4.63059 122.189 4.63059H123.499C123.588 4.63059 123.656 4.69848 123.656 4.78673Z" fill="#0C0066"/>
<path d="M135.308 18.0861C135.308 18.1744 135.24 18.2423 135.151 18.2423H127.013C126.924 18.2423 126.856 18.1744 126.856 18.0861V4.78673C126.856 4.69848 126.924 4.63059 127.013 4.63059H134.947C135.035 4.63059 135.103 4.69848 135.103 4.78673V6.01552C135.103 6.10377 135.035 6.17166 134.947 6.17166H128.643C128.555 6.17166 128.486 6.23955 128.486 6.3278V10.374C128.486 10.4622 128.555 10.5301 128.643 10.5301H134.455C134.544 10.5301 134.612 10.598 134.612 10.6863V11.8947C134.612 11.9829 134.544 12.0508 134.455 12.0508H128.643C128.555 12.0508 128.486 12.1187 128.486 12.207V16.5179C128.486 16.6061 128.555 16.674 128.643 16.674H135.151C135.24 16.674 135.308 16.7419 135.308 16.8302V18.0861Z" fill="#0C0066"/>
<path d="M61.2053 33.1898C61.3076 33.1898 61.3895 33.2848 61.3622 33.3867C60.2229 37.7247 55.1135 39.5102 51.2455 37.5211C46.5795 35.1382 46.4839 27.6501 51.0545 25.1178C54.3494 23.2237 59.1246 24.3507 60.8028 27.8605C60.8301 27.9216 60.8164 27.9963 60.7687 28.0438L59.7864 29.0214C59.7045 29.1029 59.5681 29.0757 59.5271 28.9671C58.4288 25.9936 54.5745 25.0431 51.8936 26.5231C48.4759 28.3629 48.4827 34.1809 51.8936 36.0207C54.6837 37.555 58.7017 36.4756 59.6772 33.3052C59.6977 33.2373 59.7591 33.1898 59.8273 33.1898H61.2053Z" fill="#0C0066"/>
<path d="M84.3423 37.922C84.3423 38.0102 84.2741 38.0781 84.1854 38.0781H76.0471C75.9584 38.0781 75.8902 38.0102 75.8902 37.922V24.6226C75.8902 24.5343 75.9584 24.4664 76.0471 24.4664H83.9808C84.0694 24.4664 84.1377 24.5343 84.1377 24.6226V25.8513C84.1377 25.9396 84.0694 26.0075 83.9808 26.0075H77.6775C77.5888 26.0075 77.5206 26.0754 77.5206 26.1636V30.2098C77.5206 30.2981 77.5888 30.3659 77.6775 30.3659H83.4896C83.5783 30.3659 83.6465 30.4338 83.6465 30.5221V31.7305C83.6465 31.8188 83.5783 31.8867 83.4896 31.8867H77.6775C77.5888 31.8867 77.5206 31.9545 77.5206 32.0428V36.3537C77.5206 36.442 77.5888 36.5099 77.6775 36.5099H84.1854C84.2741 36.5099 84.3423 36.5778 84.3423 36.666V37.922Z" fill="#0C0066"/>
<path d="M105.456 24.6707L101.063 37.97C101.042 38.0379 100.981 38.0787 100.913 38.0787H99.7257C99.6575 38.0787 99.5961 38.0379 99.5756 37.9768L95.7077 27.522C95.6531 27.3862 95.4621 27.3862 95.4075 27.522L91.5533 37.9768C91.5328 38.0379 91.4714 38.0787 91.4032 38.0787H90.1957C90.1275 38.0787 90.0661 38.0311 90.0456 37.97L85.6729 24.6707C85.6388 24.5688 85.7138 24.4602 85.823 24.4602H87.201C87.2692 24.4602 87.3306 24.5077 87.3511 24.5688L89.3294 30.6109L90.7074 34.8811C90.7551 35.0237 90.9598 35.0305 91.0075 34.8811L92.5902 30.5973L94.7936 24.5552C94.8141 24.4941 94.8754 24.4534 94.9437 24.4534H96.1511C96.2193 24.4534 96.2807 24.4941 96.3012 24.5552L100.108 34.9015C100.162 35.044 100.36 35.0372 100.408 34.9015L101.806 30.6109L103.764 24.5688C103.785 24.5009 103.846 24.4602 103.914 24.4602H105.292C105.401 24.4602 105.476 24.5688 105.442 24.6707H105.456Z" fill="#0C0066"/>
<path d="M70.4218 33.1631C70.3604 33.0749 70.4013 32.9459 70.5105 32.9187C71.3359 32.6811 72.0181 32.2534 72.5365 31.6356C73.1778 30.8821 73.4984 29.9316 73.4984 28.7979C73.4984 27.9357 73.3074 27.1685 72.9185 26.5168C72.5297 25.8651 71.984 25.3559 71.2881 24.9961C70.5991 24.6431 69.7805 24.4598 68.8664 24.4598H65.7216C65.6807 24.4598 65.6397 24.4734 65.6056 24.5005L63.7774 26.3131C63.7774 26.3131 63.7296 26.381 63.7296 26.4286L63.716 37.9153C63.716 38.0036 63.7842 38.0715 63.8729 38.0715H65.1827C65.2714 38.0715 65.3396 38.0036 65.3396 37.9153V33.2989C65.3396 33.2106 65.4146 33.1427 65.5033 33.1427H68.3139C68.3684 33.1427 68.4162 33.1699 68.4435 33.2106L71.8885 38.0172C71.9157 38.0579 71.9635 38.085 72.0181 38.085H73.5939C73.7235 38.085 73.7985 37.9425 73.7235 37.8339L70.4013 33.1631H70.4218ZM65.3669 31.4184V26.1842C65.3669 26.0959 65.4419 26.028 65.5306 26.028H68.7505C69.726 26.028 70.4968 26.2792 71.0426 26.7816C71.5883 27.2772 71.8475 27.9357 71.8475 28.8047C71.8475 29.6736 71.5815 30.3457 71.0357 30.8413C70.49 31.3369 69.726 31.5881 68.7436 31.5813H65.5238C65.4351 31.5813 65.3669 31.5066 65.3669 31.4184Z" fill="#0C0066"/>
<path d="M37.465 40H2.7287C1.22109 40 0 38.7848 0 37.2845V2.71555C0 1.21521 1.22109 0 2.7287 0H37.465C38.9726 0 40.1937 1.21521 40.1937 2.71555V37.2845C40.1937 38.7848 38.9726 40 37.465 40Z" fill="#804EE1"/>
<path d="M20.6097 18.466C18.9998 18.0383 17.3489 18.9888 16.9192 20.5842C16.0391 24.4674 21.5511 25.9338 22.7381 22.1388C23.1679 20.5366 22.2128 18.8937 20.6097 18.466Z" fill="white"/>
<path d="M20.9332 17.262C21.1924 17.3367 21.4789 17.1806 21.5471 16.909L22.7819 12.3129C22.8501 12.0685 23.0547 11.8852 23.3071 11.8377C24.2281 11.6612 24.9239 10.8465 24.9239 9.87574C24.8216 7.22808 21.015 7.22808 20.9059 9.87574C20.9059 10.4732 21.1719 11.0095 21.588 11.3761C21.7859 11.5458 21.8746 11.8106 21.8063 12.0618L20.5716 16.651C20.4966 16.9158 20.6603 17.1941 20.9263 17.262H20.9332Z" fill="white"/>
<path d="M16.8142 17.6575L13.9491 14.8062C13.7513 14.6093 13.6967 14.3106 13.8127 14.0594C14.9996 11.4864 11.732 8.96095 9.48766 11.0791C8.34161 12.1857 8.49851 14.1001 9.70596 15.0506C9.91743 15.2203 10.0061 15.4986 9.93108 15.7566L8.33479 21.6765C8.26657 21.9209 8.06192 22.111 7.81633 22.1585C6.54067 22.4165 5.65384 23.7539 6.02221 25.0506C6.77943 27.5896 10.279 27.1619 10.5996 24.7722C10.6337 24.5075 10.8315 24.2902 11.0908 24.2155L15.3475 23.0818C15.6136 23.0071 15.7773 22.7356 15.7023 22.4708C15.6272 22.206 15.3544 22.0431 15.0883 22.1178L11.0908 23.1836C10.6951 23.2922 10.279 23.1565 9.9993 22.8578C9.99247 22.8442 9.97883 22.8374 9.97201 22.8238C9.70596 22.5523 9.59681 22.1585 9.69914 21.7851L11.1181 16.517C11.2477 16.035 11.6229 15.6616 12.1072 15.5258C12.1209 15.5258 12.1345 15.519 12.1481 15.5122C12.653 15.3629 13.2055 15.4851 13.5807 15.8584L16.1048 18.3703C16.2003 18.4654 16.3299 18.5197 16.4595 18.5197C16.8961 18.5265 17.1348 17.9766 16.8142 17.6643V17.6575Z" fill="white"/>
<path d="M33.9494 17.5972C33.0217 14.4946 28.533 15.2822 28.6967 18.4797L24.3035 19.6542C24.0374 19.7289 23.8737 20.0004 23.9487 20.2652C24.017 20.5367 24.3035 20.6929 24.5627 20.6182L28.0077 19.7017C28.5193 19.5659 29.0582 19.7356 29.4198 20.1158C29.4334 20.1294 29.4403 20.1362 29.4539 20.1498C29.8018 20.5096 29.9451 21.0187 29.8154 21.5008L28.417 26.6874C28.3078 27.1016 27.9872 27.4206 27.5711 27.5496C27.5711 27.5496 27.5643 27.5496 27.5574 27.5496C27.1209 27.6854 26.6502 27.5632 26.3295 27.2373L23.4985 24.42C23.3348 24.257 23.0687 24.257 22.905 24.42C22.7413 24.5829 22.7413 24.8477 22.905 25.0106L26.35 28.439C24.7946 30.7947 27.8508 33.3677 29.9314 31.4125C30.9001 30.4756 30.8114 28.8735 29.8291 28.0181C29.6381 27.8483 29.5494 27.5904 29.6176 27.3392L31.2139 21.4193C31.2821 21.1613 31.5004 20.9576 31.7665 20.9169C33.2877 20.6929 34.386 19.1179 33.9494 17.5904V17.5972Z" fill="white"/>
</svg>
